<?xml version="1.0" standalone="no"?>
<!DOCTYPE svg PUBLIC "-//W3C//DTD SVG 20010904//EN"
 "http://www.w3.org/TR/2001/REC-SVG-20010904/DTD/svg10.dtd">
<svg version="1.0" xmlns="http://www.w3.org/2000/svg"
 width="235.000000pt" height="48.000000pt" viewBox="0 0 235.000000 48.000000"
 preserveAspectRatio="xMidYMid meet">

<g transform="translate(0.000000,48.000000) scale(0.100000,-0.100000)"
fill="#000000" stroke="none">
<path d="M464 320 c0 -63 1 -89 3 -57 2 31 2 83 0 115 -2 31 -3 5 -3 -58z"/>
<path d="M1588 375 c12 -17 26 -50 31 -75 6 -33 9 -37 10 -17 1 35 -20 88 -44
107 -15 12 -14 8 3 -15z"/>
<path d="M1712 290 c-2 -59 0 -110 5 -113 8 -5 12 208 3 216 -3 3 -6 -43 -8
-103z"/>
<path d="M1885 367 c-4 -312 -4 -303 -27 -315 -14 -6 -17 -11 -8 -11 34 -1 37
14 42 182 2 92 2 170 -1 172 -3 2 -6 -11 -6 -28z"/>
<path d="M1994 367 c-1 -30 -1 -30 9 -9 6 14 7 26 1 32 -5 5 -9 -4 -10 -23z"/>
<path d="M301 347 c-13 -21 -12 -21 5 -5 10 10 16 20 13 22 -3 3 -11 -5 -18
-17z"/>
<path d="M1062 344 c-7 -8 -8 -14 -3 -14 10 0 25 19 20 25 -2 1 -10 -3 -17
-11z"/>
<path d="M2316 338 c-4 -13 -51 -63 -106 -113 -55 -49 -100 -94 -100 -98 0 -5
47 36 105 90 96 89 125 126 112 139 -2 3 -7 -5 -11 -18z"/>
<path d="M629 321 c-16 -16 -29 -35 -29 -43 1 -7 7 -1 16 14 8 15 27 34 42 42
15 9 21 15 14 16 -8 0 -27 -13 -43 -29z"/>
<path d="M812 315 c0 -16 2 -22 5 -12 2 9 2 23 0 30 -3 6 -5 -1 -5 -18z"/>
<path d="M1463 314 c-10 -16 -18 -50 -19 -88 -1 -33 0 -45 2 -26 9 77 15 97
35 118 11 12 15 22 10 22 -6 0 -18 -12 -28 -26z"/>
<path d="M179 320 c-19 -11 -45 -68 -35 -77 3 -3 6 1 6 10 0 8 12 29 26 46 28
33 28 36 3 21z"/>
<path d="M1205 310 c-3 -6 1 -7 9 -4 18 7 21 14 7 14 -6 0 -13 -4 -16 -10z"/>
<path d="M2001 294 c0 -11 3 -14 6 -6 3 7 2 16 -1 19 -3 4 -6 -2 -5 -13z"/>
<path d="M1316 285 c-9 -26 -7 -32 5 -12 6 10 9 21 6 23 -2 3 -7 -2 -11 -11z"/>
<path d="M1993 171 c2 -104 2 -105 -23 -112 l-25 -7 28 -1 c16 -1 30 5 33 14
3 8 1 58 -4 112 l-10 98 1 -104z"/>
<path d="M1621 217 c0 -15 -8 -43 -15 -62 -8 -19 -11 -35 -6 -35 13 0 33 72
27 100 -4 24 -4 24 -6 -3z"/>
<path d="M350 195 c0 -40 -87 -114 -136 -116 -10 0 -13 -3 -7 -6 40 -16 153
70 153 117 0 11 -2 20 -5 20 -3 0 -5 -7 -5 -15z"/>
<path d="M1061 194 c0 -11 3 -14 6 -6 3 7 2 16 -1 19 -3 4 -6 -2 -5 -13z"/>
<path d="M1029 138 c-19 -23 -38 -33 -70 -38 l-44 -7 43 -2 c36 -1 49 4 73 28
16 16 29 34 29 40 0 15 -1 14 -31 -21z"/>
<path d="M466 113 c-6 -14 -5 -15 5 -6 7 7 10 15 7 18 -3 3 -9 -2 -12 -12z"/>
<path d="M645 104 l-40 -14 39 5 c22 2 44 9 50 15 13 13 1 11 -49 -6z"/>
<path d="M808 115 c-3 -3 -25 -9 -49 -14 -44 -9 -44 -9 -8 -10 19 -1 44 6 55
14 10 8 16 15 13 15 -3 0 -8 -2 -11 -5z"/>
<path d="M1796 104 c-11 -8 -34 -14 -50 -15 -26 0 -28 -2 -11 -8 21 -9 71 4
81 21 10 16 0 17 -20 2z"/>
<path d="M1263 80 c-25 -31 -62 -42 -105 -30 -15 5 -26 5 -23 1 2 -5 18 -11
35 -15 39 -7 94 15 110 44 17 32 8 32 -17 0z"/>
<path d="M1608 69 c-13 -13 -14 -19 -5 -19 14 0 37 20 37 32 0 13 -14 8 -32
-13z"/>
<path d="M2252 65 c-14 -29 -20 -30 -108 -9 -37 8 -76 14 -88 12 -11 -2 22
-12 74 -22 52 -10 100 -21 106 -23 6 -2 17 10 24 27 15 37 8 51 -8 15z"/>
<path d="M1546 73 c-3 -4 -25 -10 -49 -14 l-42 -6 41 -2 c22 0 49 6 60 14 10
8 14 15 8 15 -6 0 -14 -3 -18 -7z"/>
</g>
</svg>
